<svg width="60" height="24" viewBox="0 0 60 24" fill="none" xmlns="http://www.w3.org/2000/svg">
<path d="M17 21V19C17 17.9391 16.5786 16.9217 15.8284 16.1716C15.0783 15.4214 14.0609 15 13 15H5C3.93913 15 2.92172 15.4214 2.17157 16.1716C1.42143 16.9217 1 17.9391 1 19V21" stroke="white" stroke-width="2" stroke-linecap="round" stroke-linejoin="round"/>
<path d="M9 11C11.2091 11 13 9.20914 13 7C13 4.79086 11.2091 3 9 3C6.79086 3 5 4.79086 5 7C5 9.20914 6.79086 11 9 11Z" stroke="white" stroke-width="2" stroke-linecap="round" stroke-linejoin="round"/>
<path d="M23 21V19C22.9993 18.1137 22.7044 17.2528 22.1614 16.5523C21.6184 15.8519 20.8581 15.3516 20 15.13" stroke="white" stroke-width="2" stroke-linecap="round" stroke-linejoin="round"/>
<path d="M16 3.13C16.8604 3.3503 17.623 3.8507 18.1676 4.55231C18.7122 5.25392 19.0078 6.11683 19.0078 7.005C19.0078 7.89317 18.7122 8.75608 18.1676 9.45769C17.623 10.1593 16.8604 10.6597 16 10.88" stroke="white" stroke-width="2" stroke-linecap="round" stroke-linejoin="round"/>
<path d="M27.1186 22V11.8182H28.6051V15.6016H28.6946C28.7808 15.4425 28.9051 15.2585 29.0675 15.0497C29.2299 14.8409 29.4553 14.6586 29.7436 14.5028C30.032 14.3438 30.4131 14.2642 30.8871 14.2642C31.5036 14.2642 32.0537 14.42 32.5376 14.7315C33.0215 15.0431 33.401 15.4922 33.6761 16.0788C33.9545 16.6655 34.0938 17.3714 34.0938 18.1967C34.0938 19.022 33.9562 19.7296 33.6811 20.3196C33.406 20.9062 33.0282 21.3587 32.5476 21.6768C32.067 21.9917 31.5185 22.1491 30.902 22.1491C30.438 22.1491 30.0585 22.0713 29.7635 21.9155C29.4718 21.7597 29.2431 21.5774 29.0774 21.3686C28.9117 21.1598 28.7841 20.9742 28.6946 20.8118H28.5703V22H27.1186ZM28.5753 18.1818C28.5753 18.7187 28.6532 19.1894 28.8089 19.5938C28.9647 19.9981 29.1901 20.3146 29.4851 20.5433C29.7801 20.7687 30.1413 20.8814 30.5689 20.8814C31.013 20.8814 31.3842 20.7637 31.6825 20.5284C31.9808 20.2898 32.2062 19.9666 32.3587 19.5589C32.5144 19.1513 32.5923 18.6922 32.5923 18.1818C32.5923 17.678 32.5161 17.2256 32.3636 16.8246C32.2145 16.4235 31.9891 16.107 31.6875 15.875C31.3892 15.643 31.0163 15.527 30.5689 15.527C30.138 15.527 29.7734 15.638 29.4751 15.8601C29.1802 16.0821 28.9564 16.392 28.804 16.7898C28.6515 17.1875 28.5753 17.6515 28.5753 18.1818ZM38.9796 22.1541C38.2637 22.1541 37.6389 21.9901 37.1053 21.6619C36.5717 21.3338 36.1574 20.8748 35.8624 20.2848C35.5674 19.6948 35.4199 19.0054 35.4199 18.2166C35.4199 17.4245 35.5674 16.7318 35.8624 16.1385C36.1574 15.5452 36.5717 15.0845 37.1053 14.7564C37.6389 14.4283 38.2637 14.2642 38.9796 14.2642C39.6955 14.2642 40.3203 14.4283 40.8539 14.7564C41.3875 15.0845 41.8018 15.5452 42.0968 16.1385C42.3917 16.7318 42.5392 17.4245 42.5392 18.2166C42.5392 19.0054 42.3917 19.6948 42.0968 20.2848C41.8018 20.8748 41.3875 21.3338 40.8539 21.6619C40.3203 21.9901 39.6955 22.1541 38.9796 22.1541ZM38.9846 20.9062C39.4486 20.9062 39.833 20.7836 40.138 20.5384C40.4429 20.2931 40.6683 19.9666 40.8141 19.5589C40.9632 19.1513 41.0378 18.7022 41.0378 18.2116C41.0378 17.7244 40.9632 17.277 40.8141 16.8693C40.6683 16.4583 40.4429 16.1286 40.138 15.88C39.833 15.6314 39.4486 15.5071 38.9846 15.5071C38.5172 15.5071 38.1294 15.6314 37.8212 15.88C37.5163 16.1286 37.2892 16.4583 37.1401 16.8693C36.9943 17.277 36.9213 17.7244 36.9213 18.2116C36.9213 18.7022 36.9943 19.1513 37.1401 19.5589C37.2892 19.9666 37.5163 20.2931 37.8212 20.5384C38.1294 20.7836 38.5172 20.9062 38.9846 20.9062ZM47.4151 22.1541C46.6992 22.1541 46.0745 21.9901 45.5408 21.6619C45.0072 21.3338 44.5929 20.8748 44.2979 20.2848C44.003 19.6948 43.8555 19.0054 43.8555 18.2166C43.8555 17.4245 44.003 16.7318 44.2979 16.1385C44.5929 15.5452 45.0072 15.0845 45.5408 14.7564C46.0745 14.4283 46.6992 14.2642 47.4151 14.2642C48.131 14.2642 48.7558 14.4283 49.2894 14.7564C49.823 15.0845 50.2373 15.5452 50.5323 16.1385C50.8273 16.7318 50.9748 17.4245 50.9748 18.2166C50.9748 19.0054 50.8273 19.6948 50.5323 20.2848C50.2373 20.8748 49.823 21.3338 49.2894 21.6619C48.7558 21.9901 48.131 22.1541 47.4151 22.1541ZM47.4201 20.9062C47.8841 20.9062 48.2686 20.7836 48.5735 20.5384C48.8784 20.2931 49.1038 19.9666 49.2496 19.5589C49.3988 19.1513 49.4734 18.7022 49.4734 18.2116C49.4734 17.7244 49.3988 17.277 49.2496 16.8693C49.1038 16.4583 48.8784 16.1286 48.5735 15.88C48.2686 15.6314 47.8841 15.5071 47.4201 15.5071C46.9528 15.5071 46.565 15.6314 46.2567 15.88C45.9518 16.1286 45.7248 16.4583 45.5756 16.8693C45.4298 17.277 45.3569 17.7244 45.3569 18.2116C45.3569 18.7022 45.4298 19.1513 45.5756 19.5589C45.7248 19.9666 45.9518 20.2931 46.2567 20.5384C46.565 20.7836 46.9528 20.9062 47.4201 20.9062ZM54.0012 19.4098L53.9913 17.5952H54.2498L57.2924 14.3636H59.0723L55.6021 18.0426H55.3684L54.0012 19.4098ZM52.6341 22V11.8182H54.1206V22H52.6341ZM57.4565 22L54.7221 18.3707L55.7463 17.3317L59.2811 22H57.4565Z" fill="#2DD4BF"/>
</svg>
